<?xml version="1.0" encoding="iso-8859-1"?>
<!-- Generator: Adobe Illustrator 16.0.0, SVG Export Plug-In . SVG Version: 6.00 Build 0)  -->
<!DOCTYPE svg PUBLIC "-//W3C//DTD SVG 1.1//EN" "http://www.w3.org/Graphics/SVG/1.1/DTD/svg11.dtd">
<svg version="1.1" id="Capa_1" xmlns="http://www.w3.org/2000/svg" xmlns:xlink="http://www.w3.org/1999/xlink" x="0px" y="0px"
	 width="699.428px" height="699.428px" viewBox="0 0 699.428 699.428" style="enable-background:new 0 0 699.428 699.428;"
	 xml:space="preserve">
<g>
	<g id="Bell">
		<g>
			<path d="M618.666,487.262c-42.119-36.414-72.238-133.176-72.238-246.833c0-86.03-55.298-158.967-132.235-185.676
				C409.013,23.715,382.216,0,349.714,0c-32.501,0-59.298,23.715-64.479,54.752C208.298,81.461,153,154.399,153,240.429
				c0,113.636-30.097,210.374-72.238,246.833c-23.518,20.35-37.048,49.9-37.048,81.023c0,36.219,29.354,65.572,65.571,65.572
				h174.857c0,36.217,29.354,65.57,65.571,65.57c36.217,0,65.571-29.354,65.571-65.57h174.857c36.217,0,65.571-29.354,65.571-65.572
				C655.714,537.184,642.206,507.611,618.666,487.262z M109.285,568.285c0-12.064,5.246-23.539,14.36-31.43
				c58.555-50.621,94.925-164.213,94.925-296.427c0-72.325,58.818-131.143,131.143-131.143s131.143,58.818,131.143,131.143
				c0,132.214,36.37,245.806,94.926,296.427c9.137,7.912,14.36,19.365,14.36,31.43H109.285z"/>
		</g>
	</g>
</g>
<g>
</g>
<g>
</g>
<g>
</g>
<g>
</g>
<g>
</g>
<g>
</g>
<g>
</g>
<g>
</g>
<g>
</g>
<g>
</g>
<g>
</g>
<g>
</g>
<g>
</g>
<g>
</g>
<g>
</g>
</svg>
